<mxfile host="app.diagrams.net" modified="2022-07-15T09:54:25.307Z" agent="5.0 (Windows NT 10.0; Win64; x64) AppleWebKit/537.36 (KHTML, like Gecko) Chrome/103.0.0.0 Safari/537.36" etag="aifqH3uaqHjQbaFatxE-" version="20.1.1" type="github">
  <diagram id="mtD3_fo9CxhAtq568jYo" name="Page-1">
    <mxGraphModel dx="1422" dy="762" grid="1" gridSize="10" guides="1" tooltips="1" connect="1" arrows="1" fold="1" page="1" pageScale="1" pageWidth="827" pageHeight="1169" math="0" shadow="0">
      <root>
        <mxCell id="0" />
        <mxCell id="1" parent="0" />
        <mxCell id="0FbEJORKFNZ07Pgh-AJ2-14" value="users" style="swimlane;fontStyle=0;childLayout=stackLayout;horizontal=1;startSize=26;horizontalStack=0;resizeParent=1;resizeParentMax=0;resizeLast=0;collapsible=1;marginBottom=0;align=center;fontSize=14;strokeColor=default;" vertex="1" parent="1">
          <mxGeometry x="110" y="180" width="160" height="326" as="geometry" />
        </mxCell>
        <mxCell id="0FbEJORKFNZ07Pgh-AJ2-15" value="access_id" style="text;strokeColor=none;fillColor=none;spacingLeft=4;spacingRight=4;overflow=hidden;rotatable=0;points=[[0,0.5],[1,0.5]];portConstraint=eastwest;fontSize=12;" vertex="1" parent="0FbEJORKFNZ07Pgh-AJ2-14">
          <mxGeometry y="26" width="160" height="30" as="geometry" />
        </mxCell>
        <mxCell id="0FbEJORKFNZ07Pgh-AJ2-56" value="user_id" style="text;strokeColor=none;fillColor=none;spacingLeft=4;spacingRight=4;overflow=hidden;rotatable=0;points=[[0,0.5],[1,0.5]];portConstraint=eastwest;fontSize=12;" vertex="1" parent="0FbEJORKFNZ07Pgh-AJ2-14">
          <mxGeometry y="56" width="160" height="30" as="geometry" />
        </mxCell>
        <mxCell id="0FbEJORKFNZ07Pgh-AJ2-59" value="profile_link" style="text;strokeColor=none;fillColor=none;spacingLeft=4;spacingRight=4;overflow=hidden;rotatable=0;points=[[0,0.5],[1,0.5]];portConstraint=eastwest;fontSize=12;" vertex="1" parent="0FbEJORKFNZ07Pgh-AJ2-14">
          <mxGeometry y="86" width="160" height="30" as="geometry" />
        </mxCell>
        <mxCell id="0FbEJORKFNZ07Pgh-AJ2-16" value="user_f_name" style="text;strokeColor=none;fillColor=none;spacingLeft=4;spacingRight=4;overflow=hidden;rotatable=0;points=[[0,0.5],[1,0.5]];portConstraint=eastwest;fontSize=12;" vertex="1" parent="0FbEJORKFNZ07Pgh-AJ2-14">
          <mxGeometry y="116" width="160" height="30" as="geometry" />
        </mxCell>
        <mxCell id="0FbEJORKFNZ07Pgh-AJ2-17" value="user_l_name" style="text;strokeColor=none;fillColor=none;spacingLeft=4;spacingRight=4;overflow=hidden;rotatable=0;points=[[0,0.5],[1,0.5]];portConstraint=eastwest;fontSize=12;" vertex="1" parent="0FbEJORKFNZ07Pgh-AJ2-14">
          <mxGeometry y="146" width="160" height="30" as="geometry" />
        </mxCell>
        <mxCell id="0FbEJORKFNZ07Pgh-AJ2-21" value="status" style="text;strokeColor=none;fillColor=none;spacingLeft=4;spacingRight=4;overflow=hidden;rotatable=0;points=[[0,0.5],[1,0.5]];portConstraint=eastwest;fontSize=12;" vertex="1" parent="0FbEJORKFNZ07Pgh-AJ2-14">
          <mxGeometry y="176" width="160" height="30" as="geometry" />
        </mxCell>
        <mxCell id="0FbEJORKFNZ07Pgh-AJ2-22" value="pesonal_status" style="text;strokeColor=none;fillColor=none;spacingLeft=4;spacingRight=4;overflow=hidden;rotatable=0;points=[[0,0.5],[1,0.5]];portConstraint=eastwest;fontSize=12;" vertex="1" parent="0FbEJORKFNZ07Pgh-AJ2-14">
          <mxGeometry y="206" width="160" height="30" as="geometry" />
        </mxCell>
        <mxCell id="0FbEJORKFNZ07Pgh-AJ2-18" value="subscribers" style="text;strokeColor=none;fillColor=none;spacingLeft=4;spacingRight=4;overflow=hidden;rotatable=0;points=[[0,0.5],[1,0.5]];portConstraint=eastwest;fontSize=12;" vertex="1" parent="0FbEJORKFNZ07Pgh-AJ2-14">
          <mxGeometry y="236" width="160" height="30" as="geometry" />
        </mxCell>
        <mxCell id="0FbEJORKFNZ07Pgh-AJ2-19" value="subscribes" style="text;strokeColor=none;fillColor=none;spacingLeft=4;spacingRight=4;overflow=hidden;rotatable=0;points=[[0,0.5],[1,0.5]];portConstraint=eastwest;fontSize=12;" vertex="1" parent="0FbEJORKFNZ07Pgh-AJ2-14">
          <mxGeometry y="266" width="160" height="30" as="geometry" />
        </mxCell>
        <mxCell id="0FbEJORKFNZ07Pgh-AJ2-20" value="post" style="text;strokeColor=none;fillColor=none;spacingLeft=4;spacingRight=4;overflow=hidden;rotatable=0;points=[[0,0.5],[1,0.5]];portConstraint=eastwest;fontSize=12;" vertex="1" parent="0FbEJORKFNZ07Pgh-AJ2-14">
          <mxGeometry y="296" width="160" height="30" as="geometry" />
        </mxCell>
        <mxCell id="0FbEJORKFNZ07Pgh-AJ2-25" value="posts" style="swimlane;fontStyle=0;childLayout=stackLayout;horizontal=1;startSize=26;horizontalStack=0;resizeParent=1;resizeParentMax=0;resizeLast=0;collapsible=1;marginBottom=0;align=center;fontSize=14;strokeColor=default;" vertex="1" parent="1">
          <mxGeometry x="414" y="20" width="160" height="236" as="geometry" />
        </mxCell>
        <mxCell id="0FbEJORKFNZ07Pgh-AJ2-29" value="author" style="text;strokeColor=none;fillColor=none;spacingLeft=4;spacingRight=4;overflow=hidden;rotatable=0;points=[[0,0.5],[1,0.5]];portConstraint=eastwest;fontSize=12;" vertex="1" parent="0FbEJORKFNZ07Pgh-AJ2-25">
          <mxGeometry y="26" width="160" height="30" as="geometry" />
        </mxCell>
        <mxCell id="0FbEJORKFNZ07Pgh-AJ2-26" value="title" style="text;strokeColor=none;fillColor=none;spacingLeft=4;spacingRight=4;overflow=hidden;rotatable=0;points=[[0,0.5],[1,0.5]];portConstraint=eastwest;fontSize=12;" vertex="1" parent="0FbEJORKFNZ07Pgh-AJ2-25">
          <mxGeometry y="56" width="160" height="30" as="geometry" />
        </mxCell>
        <mxCell id="0FbEJORKFNZ07Pgh-AJ2-28" value="pictures" style="text;strokeColor=none;fillColor=none;spacingLeft=4;spacingRight=4;overflow=hidden;rotatable=0;points=[[0,0.5],[1,0.5]];portConstraint=eastwest;fontSize=12;" vertex="1" parent="0FbEJORKFNZ07Pgh-AJ2-25">
          <mxGeometry y="86" width="160" height="30" as="geometry" />
        </mxCell>
        <mxCell id="0FbEJORKFNZ07Pgh-AJ2-27" value="description" style="text;strokeColor=none;fillColor=none;spacingLeft=4;spacingRight=4;overflow=hidden;rotatable=0;points=[[0,0.5],[1,0.5]];portConstraint=eastwest;fontSize=12;" vertex="1" parent="0FbEJORKFNZ07Pgh-AJ2-25">
          <mxGeometry y="116" width="160" height="30" as="geometry" />
        </mxCell>
        <mxCell id="0FbEJORKFNZ07Pgh-AJ2-30" value="pictures" style="text;strokeColor=none;fillColor=none;spacingLeft=4;spacingRight=4;overflow=hidden;rotatable=0;points=[[0,0.5],[1,0.5]];portConstraint=eastwest;fontSize=12;" vertex="1" parent="0FbEJORKFNZ07Pgh-AJ2-25">
          <mxGeometry y="146" width="160" height="30" as="geometry" />
        </mxCell>
        <mxCell id="0FbEJORKFNZ07Pgh-AJ2-31" value="likes" style="text;strokeColor=none;fillColor=none;spacingLeft=4;spacingRight=4;overflow=hidden;rotatable=0;points=[[0,0.5],[1,0.5]];portConstraint=eastwest;fontSize=12;" vertex="1" parent="0FbEJORKFNZ07Pgh-AJ2-25">
          <mxGeometry y="176" width="160" height="30" as="geometry" />
        </mxCell>
        <mxCell id="0FbEJORKFNZ07Pgh-AJ2-32" value="comments" style="text;strokeColor=none;fillColor=none;spacingLeft=4;spacingRight=4;overflow=hidden;rotatable=0;points=[[0,0.5],[1,0.5]];portConstraint=eastwest;fontSize=12;" vertex="1" parent="0FbEJORKFNZ07Pgh-AJ2-25">
          <mxGeometry y="206" width="160" height="30" as="geometry" />
        </mxCell>
        <mxCell id="0FbEJORKFNZ07Pgh-AJ2-35" value="subscribes" style="swimlane;fontStyle=0;childLayout=stackLayout;horizontal=1;startSize=26;horizontalStack=0;resizeParent=1;resizeParentMax=0;resizeLast=0;collapsible=1;marginBottom=0;align=center;fontSize=14;strokeColor=default;" vertex="1" parent="1">
          <mxGeometry x="600" y="490" width="160" height="146" as="geometry" />
        </mxCell>
        <mxCell id="0FbEJORKFNZ07Pgh-AJ2-36" value="user_id" style="text;strokeColor=none;fillColor=none;spacingLeft=4;spacingRight=4;overflow=hidden;rotatable=0;points=[[0,0.5],[1,0.5]];portConstraint=eastwest;fontSize=12;" vertex="1" parent="0FbEJORKFNZ07Pgh-AJ2-35">
          <mxGeometry y="26" width="160" height="30" as="geometry" />
        </mxCell>
        <mxCell id="0FbEJORKFNZ07Pgh-AJ2-40" value="user_f_name" style="text;strokeColor=none;fillColor=none;spacingLeft=4;spacingRight=4;overflow=hidden;rotatable=0;points=[[0,0.5],[1,0.5]];portConstraint=eastwest;fontSize=12;" vertex="1" parent="0FbEJORKFNZ07Pgh-AJ2-35">
          <mxGeometry y="56" width="160" height="30" as="geometry" />
        </mxCell>
        <mxCell id="0FbEJORKFNZ07Pgh-AJ2-41" value="user_l_name" style="text;strokeColor=none;fillColor=none;spacingLeft=4;spacingRight=4;overflow=hidden;rotatable=0;points=[[0,0.5],[1,0.5]];portConstraint=eastwest;fontSize=12;" vertex="1" parent="0FbEJORKFNZ07Pgh-AJ2-35">
          <mxGeometry y="86" width="160" height="30" as="geometry" />
        </mxCell>
        <mxCell id="0FbEJORKFNZ07Pgh-AJ2-57" value="profile_link" style="text;strokeColor=none;fillColor=none;spacingLeft=4;spacingRight=4;overflow=hidden;rotatable=0;points=[[0,0.5],[1,0.5]];portConstraint=eastwest;fontSize=12;" vertex="1" parent="0FbEJORKFNZ07Pgh-AJ2-35">
          <mxGeometry y="116" width="160" height="30" as="geometry" />
        </mxCell>
        <mxCell id="0FbEJORKFNZ07Pgh-AJ2-44" style="edgeStyle=orthogonalEdgeStyle;rounded=0;orthogonalLoop=1;jettySize=auto;html=1;exitX=0;exitY=0.5;exitDx=0;exitDy=0;entryX=0.5;entryY=0;entryDx=0;entryDy=0;" edge="1" parent="1" source="0FbEJORKFNZ07Pgh-AJ2-27" target="0FbEJORKFNZ07Pgh-AJ2-14">
          <mxGeometry relative="1" as="geometry" />
        </mxCell>
        <mxCell id="0FbEJORKFNZ07Pgh-AJ2-60" style="edgeStyle=orthogonalEdgeStyle;rounded=0;orthogonalLoop=1;jettySize=auto;html=1;exitX=0;exitY=0.5;exitDx=0;exitDy=0;entryX=1;entryY=0.5;entryDx=0;entryDy=0;" edge="1" parent="1" source="0FbEJORKFNZ07Pgh-AJ2-36" target="0FbEJORKFNZ07Pgh-AJ2-19">
          <mxGeometry relative="1" as="geometry" />
        </mxCell>
        <mxCell id="0FbEJORKFNZ07Pgh-AJ2-61" value="subscribers" style="swimlane;fontStyle=0;childLayout=stackLayout;horizontal=1;startSize=26;horizontalStack=0;resizeParent=1;resizeParentMax=0;resizeLast=0;collapsible=1;marginBottom=0;align=center;fontSize=14;strokeColor=default;" vertex="1" parent="1">
          <mxGeometry x="600" y="330" width="160" height="146" as="geometry" />
        </mxCell>
        <mxCell id="0FbEJORKFNZ07Pgh-AJ2-62" value="user_id" style="text;strokeColor=none;fillColor=none;spacingLeft=4;spacingRight=4;overflow=hidden;rotatable=0;points=[[0,0.5],[1,0.5]];portConstraint=eastwest;fontSize=12;" vertex="1" parent="0FbEJORKFNZ07Pgh-AJ2-61">
          <mxGeometry y="26" width="160" height="30" as="geometry" />
        </mxCell>
        <mxCell id="0FbEJORKFNZ07Pgh-AJ2-63" value="user_f_name" style="text;strokeColor=none;fillColor=none;spacingLeft=4;spacingRight=4;overflow=hidden;rotatable=0;points=[[0,0.5],[1,0.5]];portConstraint=eastwest;fontSize=12;" vertex="1" parent="0FbEJORKFNZ07Pgh-AJ2-61">
          <mxGeometry y="56" width="160" height="30" as="geometry" />
        </mxCell>
        <mxCell id="0FbEJORKFNZ07Pgh-AJ2-64" value="user_l_name" style="text;strokeColor=none;fillColor=none;spacingLeft=4;spacingRight=4;overflow=hidden;rotatable=0;points=[[0,0.5],[1,0.5]];portConstraint=eastwest;fontSize=12;" vertex="1" parent="0FbEJORKFNZ07Pgh-AJ2-61">
          <mxGeometry y="86" width="160" height="30" as="geometry" />
        </mxCell>
        <mxCell id="0FbEJORKFNZ07Pgh-AJ2-65" value="profile_link" style="text;strokeColor=none;fillColor=none;spacingLeft=4;spacingRight=4;overflow=hidden;rotatable=0;points=[[0,0.5],[1,0.5]];portConstraint=eastwest;fontSize=12;" vertex="1" parent="0FbEJORKFNZ07Pgh-AJ2-61">
          <mxGeometry y="116" width="160" height="30" as="geometry" />
        </mxCell>
        <mxCell id="0FbEJORKFNZ07Pgh-AJ2-66" style="edgeStyle=orthogonalEdgeStyle;rounded=0;orthogonalLoop=1;jettySize=auto;html=1;exitX=0;exitY=0.5;exitDx=0;exitDy=0;" edge="1" parent="1" source="0FbEJORKFNZ07Pgh-AJ2-62" target="0FbEJORKFNZ07Pgh-AJ2-18">
          <mxGeometry relative="1" as="geometry" />
        </mxCell>
      </root>
    </mxGraphModel>
  </diagram>
</mxfile>
